<?xml version="1.0" encoding="UTF-8" standalone="no"?>
<!-- Created with Inkscape (http://www.inkscape.org/) -->

<svg
   xmlns:dc="http://purl.org/dc/elements/1.1/"
   xmlns:cc="http://creativecommons.org/ns#"
   xmlns:rdf="http://www.w3.org/1999/02/22-rdf-syntax-ns#"
   xmlns:svg="http://www.w3.org/2000/svg"
   xmlns="http://www.w3.org/2000/svg"
   xmlns:sodipodi="http://sodipodi.sourceforge.net/DTD/sodipodi-0.dtd"
   xmlns:inkscape="http://www.inkscape.org/namespaces/inkscape"
   width="637.79529"
   height="637.79529"
   id="svg2"
   version="1.1"
   inkscape:version="0.48.5 r10040"
   sodipodi:docname="DiagramaCAetDG01.svg">
  <defs
     id="defs4" />
  <sodipodi:namedview
     id="base"
     pagecolor="#ffffff"
     bordercolor="#666666"
     borderopacity="1.0"
     inkscape:pageopacity="0.0"
     inkscape:pageshadow="2"
     inkscape:zoom="1.5299695"
     inkscape:cx="214.35906"
     inkscape:cy="338.08176"
     inkscape:document-units="px"
     inkscape:current-layer="layer1"
     showgrid="false"
     units="mm"
     showguides="true"
     inkscape:guide-bbox="true"
     inkscape:window-width="1579"
     inkscape:window-height="875"
     inkscape:window-x="0"
     inkscape:window-y="0"
     inkscape:window-maximized="1" />
  <metadata
     id="metadata7">
    <rdf:RDF>
      <cc:Work
         rdf:about="">
        <dc:format>image/svg+xml</dc:format>
        <dc:type
           rdf:resource="http://purl.org/dc/dcmitype/StillImage" />
        <dc:title></dc:title>
      </cc:Work>
    </rdf:RDF>
  </metadata>
  <g
     inkscape:label="Capa 1"
     inkscape:groupmode="layer"
     id="layer1"
     transform="translate(0,-414.56693)">
    <path
       style="fill:none;stroke:#000000;stroke-width:3.0999999;stroke-linecap:butt;stroke-linejoin:miter;stroke-miterlimit:4;stroke-opacity:1;stroke-dasharray:none"
       d="m 296.71346,329.98974 c 7.07027,13.35497 18.97887,40.22316 23.60354,54.09717 4.62467,13.87401 2.42734,20.75127 4.12669,29.09352 1.69935,8.34225 13.84541,28.93311 21.40084,34.21985 7.55543,5.28674 14.76269,-14.60456 30.36225,-34.21985 15.59956,-19.61529 42.32443,-65.8728 52.95818,-80.37122 10.63376,-14.49843 15.2052,-31.36593 14.72376,-58.32639 -0.48144,-26.96046 5.78526,-62.35292 -11.61432,-81.92993 -17.39958,-19.577 -94.68729,-88.5527 -146.30534,-90.31467 -51.61805,-1.76197 -74.00173,-20.034559 -62.27854,-24.593576 11.72319,-4.559017 20.65652,-4.186923 51.7631,1.848682 31.10658,6.035605 93.31618,22.633824 112.46038,35.507834 19.1442,12.874 31.69563,24.81694 43.56414,39.78184 11.86851,14.9649 45.41969,117.92039 36.64849,158.39077 -8.7712,40.47038 -44.16222,81.67389 -55.87054,96.30929 -11.70832,14.6354 -47.69249,59.04569 -54.33108,65.8525 -6.6386,6.80681 -29.57671,-3.47817 -37.45738,-12.18465 -7.88068,-8.70648 -22.57917,-60.09844 -29.63664,-78.05637 -7.05744,-17.95793 -17.17652,-30.36162 -20.86735,-46.72967 -3.69083,-16.36805 -4.33419,-27.93954 5.48998,-30.55932 9.82417,-2.61978 14.18957,8.82922 21.25984,22.18419 z"
       id="path2996"
       inkscape:connector-curvature="0"
       transform="translate(0,414.56693)"
       sodipodi:nodetypes="zzzzzzzzzzzzzzzzzzzzz" />
    <path
       style="fill:none;stroke:#000000;stroke-width:3.0999999;stroke-linecap:butt;stroke-linejoin:miter;stroke-miterlimit:4;stroke-opacity:1;stroke-dasharray:none"
       d="m 350.10095,353.09826 c -5.04731,-19.43519 -56.17396,-68.19431 -76.6274,-91.73405 -15.25698,-10.70965 -44.20114,-70.74972 -61.79946,-64.78714 -9.58742,3.67676 16.2654,68.93343 17.56248,100.13639 1.29708,31.20296 0.38273,52.23321 -5.54605,74.87163 -6.77453,28.81002 -12.02975,107.19371 9.08482,29.94253 8.21535,-28.33435 5.58953,-46.73993 9.11203,-65.93333 3.5225,-19.1934 7.21226,-16.8221 1.4658,-39.26371 -5.74646,-22.4416 -19.70301,-63.92333 -14.56517,-66.4404 5.13783,-2.51707 30.68475,40.60211 44.65834,50.67053 13.97359,10.06843 9.35753,12.73911 32.67709,34.88941 16.65734,17.16688 23.25527,46.54868 43.97752,37.64814 z"
       id="path2998"
       inkscape:connector-curvature="0"
       transform="translate(0,414.56693)"
       sodipodi:nodetypes="ccczcczzzzcc" />
    <rect
       style="fill:none;stroke:#000000;stroke-width:2.6;stroke-linejoin:round;stroke-miterlimit:4;stroke-opacity:1;stroke-dasharray:7.8,7.8;stroke-dashoffset:0"
       id="rect3787"
       width="369.94202"
       height="370.59561"
       x="101.3092"
       y="111.64102"
       transform="translate(0,414.56693)" />
    <text
       xml:space="preserve"
       style="font-size:32px;font-style:normal;font-variant:normal;font-weight:normal;font-stretch:normal;text-align:start;line-height:125%;letter-spacing:0px;word-spacing:0px;writing-mode:lr-tb;text-anchor:start;fill:#000080;fill-opacity:1;stroke:none;font-family:Times New Roman;-inkscape-font-specification:'Times New Roman,'"
       x="252.29262"
       y="877.84894"
       id="text3789"
       sodipodi:linespacing="125%"><tspan
         sodipodi:role="line"
         id="tspan3791"
         x="252.29262"
         y="877.84894">CA3</tspan></text>
    <text
       xml:space="preserve"
       style="font-size:32px;font-style:normal;font-variant:normal;font-weight:normal;font-stretch:normal;text-align:start;line-height:125%;letter-spacing:0px;word-spacing:0px;writing-mode:lr-tb;text-anchor:start;fill:#000080;fill-opacity:1;stroke:none;font-family:Times New Roman;-inkscape-font-specification:'Times New Roman,'"
       x="446.41412"
       y="789.61188"
       id="text3793"
       sodipodi:linespacing="125%"><tspan
         sodipodi:role="line"
         id="tspan3795"
         x="446.41412"
         y="789.61188">CA2</tspan></text>
    <text
       xml:space="preserve"
       style="font-size:32px;font-style:normal;font-variant:normal;font-weight:normal;font-stretch:normal;text-align:start;line-height:125%;letter-spacing:0px;word-spacing:0px;writing-mode:lr-tb;text-anchor:start;fill:#000080;fill-opacity:1;stroke:none;font-family:Times New Roman;-inkscape-font-specification:'Times New Roman,'"
       x="345.75851"
       y="604.64087"
       id="text3797"
       sodipodi:linespacing="125%"><tspan
         sodipodi:role="line"
         id="tspan3799"
         x="345.75851"
         y="604.64087">CA1</tspan></text>
    <text
       xml:space="preserve"
       style="font-size:32px;font-style:normal;font-variant:normal;font-weight:normal;font-stretch:normal;text-align:start;line-height:125%;letter-spacing:0px;word-spacing:0px;writing-mode:lr-tb;text-anchor:start;fill:#000080;fill-opacity:1;stroke:none;font-family:Times New Roman;-inkscape-font-specification:'Times New Roman,'"
       x="176.47411"
       y="721.63666"
       id="text3801"
       sodipodi:linespacing="125%"><tspan
         sodipodi:role="line"
         id="tspan3803"
         x="176.47411"
         y="721.63666">DG</tspan></text>
  </g>
</svg>
