<?xml version="1.0" encoding="UTF-8" standalone="no"?>
<!-- Created with Inkscape (http://www.inkscape.org/) -->

<svg
   xmlns:dc="http://purl.org/dc/elements/1.1/"
   xmlns:cc="http://creativecommons.org/ns#"
   xmlns:rdf="http://www.w3.org/1999/02/22-rdf-syntax-ns#"
   xmlns:svg="http://www.w3.org/2000/svg"
   xmlns="http://www.w3.org/2000/svg"
   xmlns:sodipodi="http://sodipodi.sourceforge.net/DTD/sodipodi-0.dtd"
   xmlns:inkscape="http://www.inkscape.org/namespaces/inkscape"
   width="637.79529"
   height="637.79529"
   id="svg2"
   version="1.1"
   inkscape:version="0.48.5 r10040"
   sodipodi:docname="DiagramaCAetDG01.svg">
  <defs
     id="defs4" />
  <sodipodi:namedview
     id="base"
     pagecolor="#ffffff"
     bordercolor="#666666"
     borderopacity="1.0"
     inkscape:pageopacity="0.0"
     inkscape:pageshadow="2"
     inkscape:zoom="1.5299695"
     inkscape:cx="214.35906"
     inkscape:cy="416.5147"
     inkscape:document-units="px"
     inkscape:current-layer="layer1"
     showgrid="false"
     units="mm"
     showguides="true"
     inkscape:guide-bbox="true"
     inkscape:window-width="1347"
     inkscape:window-height="746"
     inkscape:window-x="0"
     inkscape:window-y="0"
     inkscape:window-maximized="1" />
  <metadata
     id="metadata7">
    <rdf:RDF>
      <cc:Work
         rdf:about="">
        <dc:format>image/svg+xml</dc:format>
        <dc:type
           rdf:resource="http://purl.org/dc/dcmitype/StillImage" />
        <dc:title></dc:title>
      </cc:Work>
    </rdf:RDF>
  </metadata>
  <g
     inkscape:label="Capa 1"
     inkscape:groupmode="layer"
     id="layer1"
     transform="translate(0,-414.56693)">
    <path
       style="fill:none;stroke:#000000;stroke-width:3.0999999;stroke-linecap:butt;stroke-linejoin:miter;stroke-miterlimit:4;stroke-opacity:1;stroke-dasharray:none"
       d="m 325.4722,374.43507 c -0.55712,42.16061 -20.40123,59.97786 -1.19673,76.88686 53.96159,-0.59573 69.01214,-21.79425 84.6117,-41.40954 33.14017,-45.79729 35.8539,-90.91053 35.00155,-135.42957 -0.48144,-26.96046 -13.16937,-76.07868 -22.07205,-97.61651 -8.90267,-21.53784 -17.56156,-23.19193 -25.38789,-37.37245 -7.82633,-14.18051 -58.36924,-39.3235 -64.89297,-71.653333 -6.52374,-32.329832 -2.68836,-61.8441788 12.54663,-54.361589 15.23498,7.48259 -12.82141,57.417042 39.25631,93.025322 52.07771,35.60828 31.10451,22.0984 46.83218,37.82102 15.72767,15.72262 33.00114,91.12246 22.92272,171.46292 -10.07842,80.34046 -12.13544,90.8244 -23.84376,105.4598 -11.70832,14.6354 -42.46362,47.28075 -71.32488,54.08756 -28.86126,6.80681 -53.10659,-10.01425 -64.90891,-34.40732 -11.80231,-24.39306 6.83318,-50.94792 10.23344,-72.17389 3.40025,-21.22597 10.04339,-23.41287 -7.14159,-42.15442 -17.18499,-18.74155 -33.74654,-59.31271 -21.30794,-61.27889 12.4386,-1.96617 51.22932,66.95341 50.67219,109.11403 z"
       id="path2996"
       inkscape:connector-curvature="0"
       transform="translate(0,414.56693)"
       sodipodi:nodetypes="zccczzzzzzzzzzzzzz" />
    <path
       style="fill:none;stroke:#000000;stroke-width:3.0999999;stroke-linecap:butt;stroke-linejoin:miter;stroke-miterlimit:4;stroke-opacity:1;stroke-dasharray:none"
       d="m 348.79373,780.08374 c -5.04731,-19.43519 -37.87294,-106.75717 -58.32638,-130.29691 -15.25698,-10.70965 -17.40322,-83.16827 -35.00154,-77.20569 -9.58742,3.67676 -10.53252,81.35198 -9.23544,112.55494 1.29708,31.20296 33.71673,45.04352 27.78795,67.68194 -6.77453,28.81002 -4.18646,49.02262 9.73843,32.55697 0.37205,-13.30137 1.01427,-0.33378 4.53677,-19.52718 3.5225,-19.1934 -22.20009,-58.653 -27.94655,-81.09461 -5.74646,-22.4416 -3.36281,-79.60992 1.77503,-82.12699 5.13783,-2.51707 5.84765,57.59592 19.82124,67.66434 13.97359,10.06843 8.05031,19.92879 31.36987,42.07909 16.65734,17.16688 14.75837,76.61464 35.48062,67.7141 z"
       id="path2998"
       inkscape:connector-curvature="0"
       sodipodi:nodetypes="ccczcczzzzcc" />
    <rect
       style="fill:none;stroke:#000000;stroke-width:2.6;stroke-linejoin:round;stroke-miterlimit:4;stroke-opacity:1;stroke-dasharray:7.8,7.8;stroke-dashoffset:0"
       id="rect3787"
       width="369.94202"
       height="370.59561"
       x="101.3092"
       y="111.64102"
       transform="translate(0,414.56693)" />
    <text
       xml:space="preserve"
       style="font-size:40px;font-style:normal;font-variant:normal;font-weight:bold;font-stretch:normal;text-align:start;line-height:125%;letter-spacing:0px;word-spacing:0px;writing-mode:lr-tb;text-anchor:start;fill:#000080;fill-opacity:1;stroke:none;font-family:Oldstyle HPLHS;-inkscape-font-specification:Oldstyle HPLHS Bold"
       x="201.96481"
       y="839.28607"
       id="text3789"
       sodipodi:linespacing="125%"><tspan
         sodipodi:role="line"
         id="tspan3791"
         x="201.96481"
         y="839.28607">CA3</tspan></text>
    <text
       xml:space="preserve"
       style="font-size:40px;font-style:normal;font-variant:normal;font-weight:bold;font-stretch:normal;text-align:start;line-height:125%;letter-spacing:0px;word-spacing:0px;writing-mode:lr-tb;text-anchor:start;fill:#000080;fill-opacity:1;stroke:none;font-family:Oldstyle HPLHS;-inkscape-font-specification:Oldstyle HPLHS Bold"
       x="345.75854"
       y="808.56653"
       id="text3793"
       sodipodi:linespacing="125%"><tspan
         sodipodi:role="line"
         id="tspan3795"
         x="345.75854"
         y="808.56653">CA2</tspan></text>
    <text
       xml:space="preserve"
       style="font-size:40px;font-style:normal;font-variant:normal;font-weight:bold;font-stretch:normal;text-align:start;line-height:125%;letter-spacing:0px;word-spacing:0px;writing-mode:lr-tb;text-anchor:start;fill:#000080;fill-opacity:1;stroke:none;font-family:Oldstyle HPLHS;-inkscape-font-specification:Oldstyle HPLHS Bold"
       x="310.46368"
       y="608.5625"
       id="text3797"
       sodipodi:linespacing="125%"><tspan
         sodipodi:role="line"
         id="tspan3799"
         x="310.46368"
         y="608.5625">CA1</tspan></text>
    <text
       xml:space="preserve"
       style="font-size:40px;font-style:normal;font-variant:normal;font-weight:bold;font-stretch:normal;text-align:start;line-height:125%;letter-spacing:0px;word-spacing:0px;writing-mode:lr-tb;text-anchor:start;fill:#000080;fill-opacity:1;stroke:none;font-family:Oldstyle HPLHS;-inkscape-font-specification:Oldstyle HPLHS Bold"
       x="161.44113"
       y="721.63666"
       id="text3801"
       sodipodi:linespacing="125%"><tspan
         sodipodi:role="line"
         id="tspan3803"
         x="161.44113"
         y="721.63666">DG</tspan></text>
  </g>
</svg>
